<?xml version="1.0" standalone="no"?>
<!DOCTYPE svg PUBLIC "-//W3C//DTD SVG 20010904//EN"
 "http://www.w3.org/TR/2001/REC-SVG-20010904/DTD/svg10.dtd">
<svg version="1.0" xmlns="http://www.w3.org/2000/svg"
 width="558.000000pt" height="558.000000pt" viewBox="0 0 558.000000 558.000000"
 preserveAspectRatio="xMidYMid meet">

<g transform="translate(0.000000,558.000000) scale(0.100000,-0.100000)"
fill="red" stroke="none">
<path d="M2641 4960 c-302 -64 -532 -278 -597 -558 -20 -87 -20 -238 0 -327
83 -359 442 -603 830 -564 266 27 493 182 606 414 51 103 72 197 72 315 0 328
-205 595 -537 700 -79 25 -295 36 -374 20z m-20 -249 c23 -18 23 -24 36 -347
8 -181 18 -333 23 -338 13 -13 36 -1 56 28 14 22 16 53 15 212 -2 184 -2 187
24 225 29 44 86 77 142 82 27 3 48 13 70 35 48 49 101 40 122 -19 6 -18 11
-59 11 -93 0 -147 13 -288 27 -293 39 -15 83 76 83 173 0 57 28 94 71 94 39 0
59 -33 59 -97 0 -182 -100 -306 -243 -301 -53 1 -60 -1 -86 -29 -43 -48 -87
-66 -142 -61 -44 5 -50 2 -81 -30 -44 -46 -89 -64 -154 -61 -47 2 -55 0 -81
-28 -78 -84 -197 -87 -256 -7 -10 13 -22 50 -27 82 -14 80 -13 318 1 345 36
70 117 115 183 103 l31 -6 -4 149 c-3 150 -3 150 22 175 31 31 66 33 98 7z"/>
<path d="M2900 4416 c-12 -33 7 -277 23 -293 18 -18 53 8 60 44 8 44 -9 241
-23 258 -19 23 -49 18 -60 -9z"/>
<path d="M2429 4238 c-17 -31 -5 -246 15 -266 12 -12 17 -11 35 7 19 19 21 33
21 129 0 81 -4 113 -16 130 -19 28 -40 28 -55 0z"/>
<path d="M1398 3259 c-20 -11 -23 -41 -7 -70 8 -16 -2 -63 -48 -222 -50 -176
-61 -206 -90 -236 -36 -37 -37 -39 -23 -61 7 -11 30 -15 95 -15 74 0 89 3 101
19 12 17 12 23 -2 44 -15 24 -15 32 16 143 18 66 36 119 39 119 7 0 121 -225
121 -238 0 -4 -15 -8 -34 -8 -72 0 -118 -64 -117 -164 l0 -59 -35 -7 c-55 -10
-155 1 -205 23 -46 21 -100 67 -135 117 -15 20 -26 27 -38 23 -15 -6 -15 -9
-2 -35 24 -46 94 -110 154 -139 52 -26 67 -28 168 -28 l110 0 30 -60 c17 -33
54 -105 83 -160 46 -87 54 -111 58 -172 7 -93 -15 -162 -71 -217 -58 -59 -107
-80 -197 -84 -62 -3 -83 0 -122 18 -120 56 -161 199 -91 317 37 63 94 98 162
98 49 0 56 -3 88 -37 19 -21 34 -46 34 -57 0 -43 28 -68 45 -41 10 17 -14 88
-42 121 -86 102 -260 64 -329 -73 -72 -141 -18 -310 118 -368 71 -30 199 -26
273 10 111 54 175 158 175 286 0 83 -23 148 -105 295 -36 64 -65 123 -65 130
0 8 16 23 36 34 44 23 80 76 90 128 5 30 10 37 23 31 59 -25 123 -9 146 37 8
15 42 125 74 245 53 192 63 220 90 245 60 55 29 83 -85 77 -91 -4 -102 -13
-84 -67 12 -36 11 -49 -10 -123 -13 -46 -27 -87 -31 -92 -4 -5 -37 50 -73 122
-36 72 -75 138 -88 146 -26 18 -171 22 -200 5z m130 -6 c-21 -2 -55 -2 -75 0
-21 2 -4 4 37 4 41 0 58 -2 38 -4z m405 0 c-18 -2 -48 -2 -65 0 -18 2 -4 4 32
4 36 0 50 -2 33 -4z m-349 -569 c31 -30 10 -96 -43 -133 -43 -31 -51 -27 -51
24 0 50 20 98 47 114 24 14 29 14 47 -5z m149 -21 c-7 -2 -21 -2 -30 0 -10 3
-4 5 12 5 17 0 24 -2 18 -5z"/>
<path d="M2063 3260 c-25 -10 -28 -27 -13 -62 9 -18 2 -53 -29 -165 -51 -177
-56 -209 -42 -260 23 -85 117 -130 255 -121 139 9 218 79 260 231 9 31 23 81
31 111 15 53 15 53 60 59 25 2 55 13 66 23 20 18 21 18 31 1 28 -50 86 -37
153 34 48 51 65 60 65 34 0 -8 -23 -97 -51 -197 -41 -147 -57 -189 -80 -213
-59 -63 -29 -85 114 -85 165 0 191 12 169 74 -10 27 -4 57 46 231 42 145 61
200 72 200 8 0 25 -22 38 -48 25 -52 57 -72 95 -58 30 12 41 27 61 85 25 76
22 114 -11 127 -16 6 -136 9 -314 7 -269 -3 -288 -4 -309 -23 -17 -15 -20 -27
-16 -55 2 -19 2 -27 0 -18 -3 9 -11 15 -18 12 -9 -3 -15 6 -19 25 -8 41 -55
65 -114 58 -79 -9 -96 -35 -158 -253 -49 -172 -69 -215 -107 -228 -36 -13 -77
0 -83 27 -5 20 58 269 86 339 6 15 22 34 35 43 29 19 31 50 5 65 -24 12 -247
12 -278 0z m205 -7 c-32 -2 -86 -2 -120 0 -35 2 -9 3 57 3 66 0 94 -1 63 -3z
m330 0 c-10 -2 -26 -2 -35 0 -10 3 -2 5 17 5 19 0 27 -2 18 -5z m600 0 c-76
-2 -200 -2 -275 0 -76 1 -14 3 137 3 151 0 213 -2 138 -3z m-1121 -85 c-3 -8
-6 -5 -6 6 -1 11 2 17 5 13 3 -3 4 -12 1 -19z m620 -80 c-3 -7 -5 -2 -5 12 0
14 2 19 5 13 2 -7 2 -19 0 -25z m-164 -23 c-3 -9 -8 -14 -10 -11 -3 3 -2 9 2
15 9 16 15 13 8 -4z m-506 -77 c-3 -8 -6 -5 -6 6 -1 11 2 17 5 13 3 -3 4 -12
1 -19z m280 -314 c-3 -3 -12 -4 -19 -1 -8 3 -5 6 6 6 11 1 17 -2 13 -5z m-114
-11 c-7 -2 -21 -2 -30 0 -10 3 -4 5 12 5 17 0 24 -2 18 -5z m60 0 c-7 -2 -21
-2 -30 0 -10 3 -4 5 12 5 17 0 24 -2 18 -5z"/>
<path d="M3433 3260 c-24 -10 -30 -39 -14 -68 6 -12 -9 -82 -49 -226 -52 -183
-62 -212 -89 -237 -35 -32 -37 -41 -15 -64 15 -15 15 -17 0 -34 -28 -31 -20
-79 19 -118 19 -19 35 -41 35 -48 0 -26 -101 -290 -124 -326 -30 -44 -79 -65
-120 -50 -14 6 -26 13 -26 16 0 2 11 37 24 77 70 208 40 348 -75 348 -98 0
-169 -87 -223 -273 -47 -163 -86 -217 -155 -217 -65 0 -68 8 -36 102 36 110
44 237 18 288 -35 68 -119 75 -180 14 -14 -14 -27 -23 -29 -21 -2 2 9 57 24
123 29 121 30 144 6 144 -15 0 -13 7 -79 -280 -26 -113 -60 -246 -76 -295 -56
-177 -147 -266 -187 -183 -16 35 -5 105 53 338 33 129 41 176 32 182 -14 9
-37 -18 -37 -43 0 -29 -16 -30 -40 -4 -19 21 -33 25 -77 25 -49 0 -57 -4 -98
-41 -124 -115 -189 -437 -105 -521 51 -50 137 -27 185 49 22 36 45 43 45 14 0
-10 9 -29 19 -42 38 -47 132 -23 169 42 19 33 42 38 42 11 0 -52 88 -69 161
-32 22 12 54 41 72 66 22 32 36 43 47 37 56 -25 162 -6 177 33 9 25 20 15 32
-30 13 -54 41 -76 97 -76 49 0 110 40 143 94 13 20 27 33 33 30 25 -15 82 -21
115 -12 69 19 106 79 173 281 29 89 46 127 55 123 7 -2 40 -10 74 -17 34 -6
61 -14 61 -18 0 -3 -11 -59 -25 -124 -44 -207 -29 -287 53 -287 52 0 96 31
130 90 l29 51 21 -35 c34 -58 76 -78 149 -73 77 6 136 37 181 97 19 25 38 46
42 48 4 2 17 -12 28 -31 24 -41 93 -77 146 -77 148 0 250 126 217 268 -7 28
-35 84 -63 126 l-51 76 27 59 c14 32 26 69 26 83 0 65 -70 92 -109 42 -24 -30
-29 -106 -10 -148 10 -20 8 -29 -11 -56 -21 -30 -21 -60 0 -60 5 0 15 9 22 20
7 11 17 20 23 20 12 0 78 -101 100 -154 33 -79 -4 -173 -85 -213 -77 -39 -163
-22 -201 41 -51 83 4 206 91 206 40 0 62 -17 79 -63 20 -52 49 -26 31 28 -30
92 -169 102 -227 18 -11 -16 -31 -60 -46 -99 -48 -123 -128 -193 -224 -194
-33 0 -50 7 -75 29 -31 28 -33 33 -33 97 l0 67 93 47 c138 70 202 139 202 217
0 103 -106 124 -197 40 -56 -52 -92 -123 -132 -260 -51 -176 -107 -267 -165
-267 -12 0 -27 5 -34 12 -20 20 -13 116 18 252 16 70 27 132 25 136 -3 5 -20
11 -38 15 -17 3 -56 13 -86 21 l-53 15 6 47 c4 32 1 56 -8 75 l-15 27 83 0
c147 0 177 17 135 74 -22 29 -22 30 -5 95 10 37 14 75 11 86 -4 11 -3 16 2 10
13 -15 86 -17 77 -2 -5 8 -2 7 9 -2 9 -7 17 -19 16 -25 0 -6 -3 -4 -6 4 -7 16
-31 -86 -32 -132 -2 -71 46 -108 139 -108 61 0 126 22 115 40 -3 5 0 12 7 16
7 4 10 4 6 -1 -4 -4 4 -19 18 -32 23 -21 33 -23 144 -23 143 0 173 8 168 48
-2 15 -8 26 -14 25 -6 -1 18 98 52 220 55 193 67 225 94 250 63 59 33 77 -133
77 -104 0 -128 -3 -146 -17 -19 -16 -20 -21 -9 -50 11 -29 6 -53 -46 -240 -32
-114 -63 -214 -68 -220 -14 -18 -28 -16 -28 2 0 9 -12 21 -26 27 -24 11 -25
14 -19 69 6 46 3 64 -12 90 -13 23 -15 33 -6 36 28 10 66 49 79 79 34 82 5
161 -74 197 -42 20 -66 22 -242 24 -107 2 -205 -2 -217 -7z m280 -7 c-45 -2
-122 -2 -170 0 -48 1 -11 3 82 3 94 0 133 -2 88 -3z m600 0 c-35 -2 -91 -2
-125 0 -35 2 -7 3 62 3 69 0 97 -1 63 -3z m-372 -60 c13 -16 12 -17 -3 -4 -17
13 -22 21 -14 21 2 0 10 -8 17 -17z m-213 -84 c4 -47 -28 -89 -69 -89 -24 0
-29 4 -25 18 3 9 10 39 17 65 11 46 13 48 43 45 28 -3 31 -7 34 -39z m2 -73
c0 -2 -8 -10 -17 -17 -16 -13 -17 -12 -4 4 13 16 21 21 21 13z m220 1 c0 -2
-12 -14 -27 -28 l-28 -24 24 28 c23 25 31 32 31 24z m-333 -29 c-3 -8 -6 -5
-6 6 -1 11 2 17 5 13 3 -3 4 -12 1 -19z m223 -48 c0 -5 -4 -10 -10 -10 -5 0
-10 5 -10 10 0 6 5 10 10 10 6 0 10 -4 10 -10z m57 -97 c-3 -10 -5 -4 -5 12 0
17 2 24 5 18 2 -7 2 -21 0 -30z m-540 -15 c-3 -8 -6 -5 -6 6 -1 11 2 17 5 13
3 -3 4 -12 1 -19z m330 0 c-3 -8 -6 -5 -6 6 -1 11 2 17 5 13 3 -3 4 -12 1 -19z
m330 -60 c-3 -8 -6 -5 -6 6 -1 11 2 17 5 13 3 -3 4 -12 1 -19z m-350 -45 c-3
-10 -5 -4 -5 12 0 17 2 24 5 18 2 -7 2 -21 0 -30z m-107 -18 c14 -19 14 -19
-2 -6 -10 7 -18 18 -18 24 0 6 1 8 3 6 1 -2 9 -13 17 -24z m815 -15 c8 -12
-12 -87 -26 -96 -15 -9 -21 1 -22 39 -1 47 31 85 48 57z m-1017 -47 c-10 -2
-28 -2 -40 0 -13 2 -5 4 17 4 22 1 32 -1 23 -4z m399 1 c-3 -3 -12 -4 -19 -1
-8 3 -5 6 6 6 11 1 17 -2 13 -5z m90 0 c-3 -3 -12 -4 -19 -1 -8 3 -5 6 6 6 11
1 17 -2 13 -5z m-507 -64 c10 -19 4 -70 -8 -70 -3 0 -14 7 -24 17 -21 18 -24
59 -5 66 21 9 26 7 37 -13z m648 -22 c7 -7 12 -28 12 -47 0 -29 -9 -43 -52
-85 -52 -50 -174 -124 -185 -112 -9 9 34 115 68 168 47 73 123 110 157 76z
m-938 -113 c21 -23 22 -30 17 -112 -6 -94 -22 -163 -37 -163 -6 0 -10 12 -10
26 0 19 -5 25 -17 22 -22 -4 -28 -52 -14 -103 9 -33 7 -39 -30 -85 -43 -54
-66 -70 -102 -70 -80 0 -87 157 -15 343 55 145 147 207 208 142z m-493 -41
c25 -25 25 -29 20 -112 -6 -93 -22 -162 -37 -162 -6 0 -10 9 -10 20 0 30 -29
24 -36 -7 -4 -15 -2 -45 4 -67 9 -37 8 -43 -20 -84 -36 -52 -81 -82 -125 -82
-63 0 -70 77 -22 227 55 171 106 260 163 283 31 13 35 12 63 -16z m-495 -51
c39 -45 40 -58 13 -155 -14 -51 -35 -118 -46 -148 -55 -150 -142 -227 -193
-171 -61 67 6 363 104 459 39 37 96 44 122 15z"/>
</g>
</svg>
